<?xml version="1.0" encoding="UTF-8"?><!DOCTYPE svg PUBLIC "-//W3C//DTD SVG 1.1//EN" "http://www.w3.org/Graphics/SVG/1.1/DTD/svg11.dtd"><svg xmlns="http://www.w3.org/2000/svg"><defs><style>.cls-1{fill:#fff;fill-rule:evenodd}</style><style>.cls-1{fill:#252525;fill-rule:evenodd}</style><style>.cls-1{fill:#fff;fill-rule:evenodd}</style><style>.cls-1{fill:#fff;fill-rule:evenodd}</style><style>.cls-1{fill:#a9b0bc;fill-rule:evenodd}</style><style>.cls-1{fill:#252525;fill-rule:evenodd}</style><style>.cls-1{fill:#ec0027;fill-rule:evenodd}</style></defs><symbol id="arrow-white" viewBox="0 0 15 9"><path id="Forme_29" data-name="Forme 29" class="cls-1" d="M164 14h9v-3h-8.956L164 12.726V8l-6 4.5 6 4.5v-3z" transform="translate(-158 -8)"/></symbol><symbol id="arrow" viewBox="0 0 26 16"><path id="Forme_30_copie_2" data-name="Forme 30 copie 2" class="cls-1" d="M1299 1366a1.006 1.006 0 0 0-.24-.58l-6.71-7.15a.826.826 0 0 0-1.18-.04.868.868 0 0 0-.04 1.19l5.39 5.74h-22.39a.845.845 0 0 0 0 1.69h22.39l-5.39 5.73a.878.878 0 0 0 .04 1.19.827.827 0 0 0 1.18-.03l6.71-7.16a.728.728 0 0 0 .24-.58z" transform="translate(-1273 -1358)"/></symbol><symbol id="Contact" viewBox="0 0 11 10.969"><path id="Contact" class="cls-1" d="M1168.75 15.591l-.06-.123c-.18-.4-2.46-1.022-2.65-1.032l-.15.011a3.978 3.978 0 0 0-1.37.917 9.427 9.427 0 0 1-2.43-1.811 7.365 7.365 0 0 1-1.52-2.317c.81-.671 1.16-.961 1.18-1.285.01-.175-.38-2.336-.79-2.554l-.13-.072a1.58 1.58 0 0 0-1.09-.309 1.009 1.009 0 0 0-.31.115 3.811 3.811 0 0 0-1.34 1.24c-.21.377-.3 3.819 2.49 6.726a8.969 8.969 0 0 0 6.66 2.9h.02l.04-.012a3.821 3.821 0 0 0 1.49-1.086 1.1 1.1 0 0 0-.04-1.308z" transform="translate(-1158 -7.031)"/></symbol><symbol id="intro" viewBox="0 0 41 18"><path id="Forme_40" data-name="Forme 40" class="cls-1" d="M569.278 382.616a9.322 9.322 0 0 1-2.627.67.439.439 0 0 0-.339.168l-3.645 4.946a.4.4 0 0 0 0 .587l7.2 9.808a.48.48 0 0 0 .847-.084l2.2-5.7a.563.563 0 0 1 .424-.335l6.188-.335a.452.452 0 0 0 .339-.755l-7.544-10.311a.406.406 0 0 0-.678-.167 11.445 11.445 0 0 1-2.365 1.508zm-14.494.586a.412.412 0 0 0-.339-.084 7.365 7.365 0 0 1-1.357.084 8.472 8.472 0 0 1-3.56-.754 9.623 9.623 0 0 1-2.2-1.341.452.452 0 0 0-.679.083l-7.549 10.228a.462.462 0 0 0 .339.754l6.187.335a.562.562 0 0 1 .424.336l2.2 5.7a.487.487 0 0 0 .848.083l10.171-13.5a.494.494 0 0 0-.254-.754 14.434 14.434 0 0 1-4.231-1.172z" transform="translate(-539 -381)"/></symbol><symbol id="Panier" viewBox="0 0 29 26"><path id="Panier" class="cls-1" d="M1299 79.1l-5.35 17.9h-18.3L1270 79.1h11.31v1.007a3.19 3.19 0 1 0 6.38 0V79.1H1299zm-14.44-8.1a1.185 1.185 0 0 1 1.34.747V80.7a1.585 1.585 0 0 1-2.69 0v-8.953a1.191 1.191 0 0 1 1.35-.747z" transform="translate(-1270 -71)"/></symbol><symbol id="Profil" viewBox="0 0 19 25"><path id="Profil" class="cls-1" d="M1230.3 80.017a1.446 1.446 0 0 0-.16-.707 2.472 2.472 0 0 0 .32-1.52 6.436 6.436 0 0 0 1.42-2.684.563.563 0 0 0-.24-.589.5.5 0 0 0-.61.056c-.4.366-.67.268-1.62-.311A7.1 7.1 0 0 0 1225.5 73c-3.72 0-4.45 2.208-4.59 2.967a2.681 2.681 0 0 0-.82 1.894 2.41 2.41 0 0 0 .65 1.51 1.41 1.41 0 0 0-.12.647 2.654 2.654 0 0 0 .64 1.949 4.593 4.593 0 0 0 .85 2.028 5.9 5.9 0 0 0 3.3 1.257 5.4 5.4 0 0 0 3.49-1.267 4.664 4.664 0 0 0 .85-2.121 2.748 2.748 0 0 0 .55-1.847zm4.6 11.652c-.33-3.026-2.45-4.828-5.4-5.7h-.03a.1.1 0 0 0-.01-.005 1.219 1.219 0 0 1-.32-.128 6.236 6.236 0 0 1-3.59 1.207h-.19a6.749 6.749 0 0 1-3.53-1.223 1.518 1.518 0 0 1-.33.158c-2.94.87-5.07 2.672-5.4 5.7-.02.165-.03.332-.04.5-.03.614-.05 1.238-.06 1.855a3.328 3.328 0 0 0 2.69 3.37 38.517 38.517 0 0 0 13.62 0 3.328 3.328 0 0 0 2.69-3.37c-.01-.617-.03-1.241-.06-1.855a4.175 4.175 0 0 0-.04-.509z" transform="translate(-1216 -73)"/></symbol><symbol id="Recherche" viewBox="0 0 17 17"><path id="Recherche" class="cls-1" d="M1292.17 151.184a.73.73 0 0 1 1.04 0l4.55 4.55a.742.742 0 0 1 0 1.05.742.742 0 0 1-1.05 0l-4.54-4.55a.742.742 0 0 1 0-1.05zm-4.26-11.2a6.931 6.931 0 1 0 6.93 6.931 6.927 6.927 0 0 0-6.93-6.931zm0 12.376a5.446 5.446 0 1 1 5.44-5.445 5.437 5.437 0 0 1-5.44 5.445z" transform="translate(-1281 -140)"/></symbol></svg>