<svg xmlns="http://www.w3.org/2000/svg" width="11" height="10.969" viewBox="0 0 11 10.969">
  <metadata><?xpacket begin="﻿" id="W5M0MpCehiHzreSzNTczkc9d"?>
<x:xmpmeta xmlns:x="adobe:ns:meta/" x:xmptk="Adobe XMP Core 5.6-c138 79.159824, 2016/09/14-01:09:01        ">
   <rdf:RDF xmlns:rdf="http://www.w3.org/1999/02/22-rdf-syntax-ns#">
      <rdf:Description rdf:about=""/>
   </rdf:RDF>
</x:xmpmeta>
                                                                                                    
                                                                                                    
                                                                                                    
                                                                                                    
                                                                                                    
                                                                                                    
                                                                                                    
                                                                                                    
                                                                                                    
                                                                                                    
                                                                                                    
                                                                                                    
                                                                                                    
                                                                                                    
                                                                                                    
                                                                                                    
                                                                                                    
                                                                                                    
                                                                                                    
                                                                                                    
                           
<?xpacket end="w"?></metadata>
<defs>
    <style>
      .cls-1 {
        fill: #fff;
        fill-rule: evenodd;
      }
    </style>
  </defs>
  <path id="Contact" class="cls-1" d="M1168.75,15.591l-0.06-.123c-0.18-.4-2.46-1.022-2.65-1.032l-0.15.011a3.978,3.978,0,0,0-1.37.917,9.427,9.427,0,0,1-2.43-1.811,7.365,7.365,0,0,1-1.52-2.317c0.81-.671,1.16-0.961,1.18-1.285,0.01-.175-0.38-2.336-0.79-2.554l-0.13-.072a1.58,1.58,0,0,0-1.09-.309,1.009,1.009,0,0,0-.31.115,3.811,3.811,0,0,0-1.34,1.24c-0.21.377-.3,3.819,2.49,6.726a8.969,8.969,0,0,0,6.66,2.9l0.02,0,0.04-.012a3.821,3.821,0,0,0,1.49-1.086A1.1,1.1,0,0,0,1168.75,15.591Z" transform="translate(-1158 -7.031)"/>
</svg>
