<svg xmlns="http://www.w3.org/2000/svg" width="41" height="18" viewBox="0 0 41 18">
  <metadata><?xpacket begin="﻿" id="W5M0MpCehiHzreSzNTczkc9d"?>
<x:xmpmeta xmlns:x="adobe:ns:meta/" x:xmptk="Adobe XMP Core 5.6-c138 79.159824, 2016/09/14-01:09:01        ">
   <rdf:RDF xmlns:rdf="http://www.w3.org/1999/02/22-rdf-syntax-ns#">
      <rdf:Description rdf:about=""/>
   </rdf:RDF>
</x:xmpmeta>
                                                                                                                                                                                                
<?xpacket end="w"?></metadata>
<defs>
    <style>
      .cls-1 {
        fill: #fff;
        fill-rule: evenodd;
      }
    </style>
  </defs>
  <path id="Forme_40" data-name="Forme 40" class="cls-1" d="M569.278,382.616a9.322,9.322,0,0,1-2.627.67,0.439,0.439,0,0,0-.339.168l-3.645,4.946a0.4,0.4,0,0,0,0,.587l7.2,9.808a0.48,0.48,0,0,0,.847-0.084l2.2-5.7a0.563,0.563,0,0,1,.424-0.335l6.188-.335a0.452,0.452,0,0,0,.339-0.755l-7.544-10.311a0.406,0.406,0,0,0-.678-0.167A11.445,11.445,0,0,1,569.278,382.616Zm-14.494.586a0.412,0.412,0,0,0-.339-0.084,7.365,7.365,0,0,1-1.357.084,8.472,8.472,0,0,1-3.56-.754,9.623,9.623,0,0,1-2.2-1.341,0.452,0.452,0,0,0-.679.083L539.1,391.418a0.462,0.462,0,0,0,.339.754l6.187,0.335a0.562,0.562,0,0,1,.424.336l2.2,5.7a0.487,0.487,0,0,0,.848.083l10.171-13.5a0.494,0.494,0,0,0-.254-0.754A14.434,14.434,0,0,1,554.784,383.2Z" transform="translate(-539 -381)"/>
</svg>
