<svg xmlns="http://www.w3.org/2000/svg" width="19" height="25" viewBox="0 0 19 25">
  <metadata><?xpacket begin="﻿" id="W5M0MpCehiHzreSzNTczkc9d"?>
<x:xmpmeta xmlns:x="adobe:ns:meta/" x:xmptk="Adobe XMP Core 5.6-c138 79.159824, 2016/09/14-01:09:01        ">
   <rdf:RDF xmlns:rdf="http://www.w3.org/1999/02/22-rdf-syntax-ns#">
      <rdf:Description rdf:about=""/>
   </rdf:RDF>
</x:xmpmeta>
                                                                                                    
                                                                                                    
                                                                                                    
                                                                                                    
                                                                                                    
                                                                                                    
                                                                                                    
                                                                                                    
                                                                                                    
                                                                                                    
                                                                                                    
                                                                                                    
                                                                                                    
                                                                                                    
                                                                                                    
                                                                                                    
                                                                                                    
                                                                                                    
                                                                                                    
                                                                                                    
                           
<?xpacket end="w"?></metadata>
<defs>
    <style>
      .cls-1 {
        fill: #252525;
        fill-rule: evenodd;
      }
    </style>
  </defs>
  <path id="Profil" class="cls-1" d="M1230.3,80.017a1.446,1.446,0,0,0-.16-0.707,2.472,2.472,0,0,0,.32-1.52,6.436,6.436,0,0,0,1.42-2.684,0.563,0.563,0,0,0-.24-0.589,0.5,0.5,0,0,0-.61.056c-0.4.366-.67,0.268-1.62-0.311A7.1,7.1,0,0,0,1225.5,73c-3.72,0-4.45,2.208-4.59,2.967a2.681,2.681,0,0,0-.82,1.894,2.41,2.41,0,0,0,.65,1.51,1.41,1.41,0,0,0-.12.647,2.654,2.654,0,0,0,.64,1.949,4.593,4.593,0,0,0,.85,2.028,5.9,5.9,0,0,0,3.3,1.257,5.4,5.4,0,0,0,3.49-1.267,4.664,4.664,0,0,0,.85-2.121A2.748,2.748,0,0,0,1230.3,80.017Zm4.6,11.652c-0.33-3.026-2.45-4.828-5.4-5.7l-0.03,0a0.1,0.1,0,0,0-.01-0.005,1.219,1.219,0,0,1-.32-0.128,6.236,6.236,0,0,1-3.59,1.207l-0.19,0a6.749,6.749,0,0,1-3.53-1.223,1.518,1.518,0,0,1-.33.158h0c-2.94.87-5.07,2.672-5.4,5.7-0.02.165-.03,0.332-0.04,0.5-0.03.614-.05,1.238-0.06,1.855a3.328,3.328,0,0,0,2.69,3.37,38.517,38.517,0,0,0,13.62,0h0a3.328,3.328,0,0,0,2.69-3.37c-0.01-.617-0.03-1.241-0.06-1.855A4.175,4.175,0,0,0,1234.9,91.669Z" transform="translate(-1216 -73)"/>
</svg>
